#!OML:ASF F:\VICON\USERDATA\INSTALL\rory3\rory3.ASF
:FULLY-SPECIFIED
:DEGREES
423
root 0.572072 17.7479 43.229 -1.09639 0.713648 0.0716245
lowerback 10.6897 -1.43836 -3.23637
upperback -0.179717 -2.18674 2.15854
thorax -5.98613 -0.944245 4.44124
lowerneck -17.3492 -3.07647 -3.00302
upperneck 19.5861 -3.99271 2.36753
head 9.12749 -1.83408 0.791871
rclavicle 3.43152e-014 -2.46493e-014
rhumerus -35.5356 -25.708 -73.7379
rradius 20.8782
rwrist 9.91542
rhand -16.0659 22.2407
rfingers 7.12502
rthumb 10.1366 -7.49508
lclavicle 3.43152e-014 -2.46493e-014
lhumerus -20.3087 -8.46165 85.0352
lradius 30.3465
lwrist 10.6346
lhand -30.7577 15.707
lfingers 7.12502
lthumb -4.04915 45.6483
rfemur -26.9863 5.26104 22.2866
rtibia 22.9746
rfoot -0.614809 -8.52529
rtoes 2.41749
lfemur 14.4684 -4.21548 -23.9033
ltibia 22.711
lfoot -10.9902 -5.25797
ltoes -21.1317
424
root 0.564231 17.7472 43.4314 -1.38102 0.723721 -0.109642
lowerback 10.7809 -1.46216 -2.86635
upperback -0.177994 -2.17353 2.16129
thorax -6.0501 -0.947169 4.23605
lowerneck -16.7467 -2.9865 -3.00533
upperneck 19.4609 -3.89193 2.41055
head 8.97282 -1.78886 0.828033
rclavicle -1.91082e-014 1.19271e-015
rhumerus -35.8159 -26.2986 -73.1977
rradius 20.5747
rwrist 10.5884
rhand -15.795 22.716
rfingers 7.12502
rthumb 10.3979 -7.00686
lclavicle -1.91082e-014 1.19271e-015
lhumerus -20.8397 -7.98675 85.2082
lradius 30.1645
lwrist 10.4285
lhand -31.1181 15.6241
lfingers 7.12502
lthumb -4.39717 45.5585
rfemur -26.5346 4.62297 22.7513
rtibia 23.7534
rfoot -0.758987 -7.38357
rtoes 2.89417
lfemur 14.2551 -4.45119 -23.7995
ltibia 25.0104
lfoot -10.273 -5.54503
ltoes -23.5879
425
root 0.552494 17.7575 43.6717 -1.78031 0.613225 -0.185956
lowerback 10.1758 -1.43964 -2.60612
upperback 0.228476 -2.10306 2.11185
thorax -5.29768 -0.945483 3.98794
lowerneck -16.3756 -2.88129 -2.887
upperneck 19.045 -3.78078 2.43062
head 8.75771 -1.73089 0.835056
rclavicle 2.40032e-014 6.75868e-015
rhumerus -35.6853 -26.9849 -72.9699
rradius 20.3928
rwrist 11.1516
rhand -15.7422 23.0622
rfingers 7.12502
rthumb 10.4488 -6.65817
lclavicle 2.40032e-014 6.75868e-015
lhumerus -20.8699 -7.44918 85.2508
lradius 29.8602
lwrist 10.0515
lhand -30.9473 16.0408
lfingers 7.12502
lthumb -4.23227 45.9785
rfemur -25.9277 4.00161 23.1452
rtibia 24.8975
rfoot -1.142 -6.30147
rtoes 1.98754
lfemur 14.1732 -4.48123 -23.7882
ltibia 27.1176
lfoot -9.08356 -6.35259
ltoes -24.5142
426
root 0.516611 17.7689 43.8091 -1.45531 -0.0425984 -1.24742
lowerback 10.3887 -1.26235 -1.80167
upperback 0.0828 -1.7534 2.4639
thorax -5.61379 -0.780786 3.86595
lowerneck -16.3759 -3.04443 -3.05553
upperneck 18.9502 -4.01271 2.66679
head 8.74114 -1.82717 0.913889
rclavicle 1.05853e-014 -1.31198e-014
rhumerus -35.4933 -27.6735 -72.7138
rradius 20.0214
rwrist 11.9633
rhand -15.8054 22.9545
rfingers 7.12502
rthumb 10.3878 -6.76887
lclavicle 1.05853e-014 -1.31198e-014
lhumerus -21.0484 -6.98714 85.3205
lradius 29.541
lwrist 9.87312
lhand -30.6939 16.633
lfingers 7.12502
lthumb -3.98753 46.5754
rfemur -26.5452 4.84854 24.5047
rtibia 26.1371
rfoot -0.967697 -6.28778
rtoes 3.75811
lfemur 12.7052 -4.16315 -22.4053
ltibia 29.2265
lfoot -7.00032 -7.55254
ltoes -25.1135
427
root 0.511313 17.7747 44.0251 -1.52587 0.070755 -0.882948
lowerback 10.2789 -1.3379 -1.99244
upperback 0.0541275 -1.88248 2.3493
thorax -5.56976 -0.841333 3.86846
lowerneck -16.2422 -2.79151 -2.56055
upperneck 19.2198 -3.64732 1.97192
head 8.77357 -1.69426 0.64378
rclavicle -5.71506e-016 1.98785e-015
rhumerus -35.5143 -28.446 -72.2249
rradius 19.5687
rwrist 12.9968
rhand -15.7134 22.6386
rfingers 7.12502
rthumb 10.4766 -7.08037
lclavicle -5.71506e-016 1.98785e-015
lhumerus -21.522 -6.5435 85.4209
lradius 29.2262
lwrist 10.0182
lhand -30.4176 17.2374
lfingers 7.12502
lthumb -3.72074 47.1846
rfemur -26.2858 4.03527 24.3315
rtibia 27.2144
rfoot -1.3714 -5.16599
rtoes 5.99523
lfemur 12.0598 -4.13162 -22.7439
ltibia 31.5279
lfoot -5.14784 -8.72205
ltoes -25.6368
428
root 0.499491 17.7855 44.2429 -1.7214 0.175476 -0.123783
lowerback 10.4186 -1.34042 -2.64268
upperback 0.0977264 -1.97703 2.15779
thorax -5.58002 -0.873064 4.0529
lowerneck -16.8621 -2.8547 -2.74663
upperneck 19.6228 -3.70951 2.10512
head 9.0325 -1.71596 0.702858
rclavicle 3.13086e-014 -1.15295e-014
rhumerus -35.4006 -28.4387 -72.1765
rradius 19.5819
rwrist 12.9111
rhand -15.7006 21.797
rfingers 7.12502
rthumb 10.489 -7.92134
lclavicle 3.13086e-014 -1.15295e-014
lhumerus -22.0065 -5.94965 85.5925
lradius 29.0514
lwrist 10.0918
lhand -30.4871 17.9854
lfingers 7.12502
lthumb -3.78789 47.9315
rfemur -25.8424 3.3872 23.7027
rtibia 28.1199
rfoot -1.89717 -4.15011
rtoes 8.04508
lfemur 11.3572 -4.06852 -23.4946
ltibia 33.9853
lfoot -2.72131 -9.87596
ltoes -24.8194
429
root 0.470063 17.7983 44.4098 -1.66475 0.0287524 -0.538594
lowerback 10.6018 -1.3969 -2.42395
upperback -0.109606 -2.01958 2.30268
thorax -5.90066 -0.887544 4.10189
lowerneck -16.1764 -2.8329 -2.99136
upperneck 19.4089 -3.72584 2.53002
head 8.84859 -1.7031 0.894451
rclavicle 1.20265e-014 0
rhumerus -35.6282 -27.2144 -72.6856
rradius 20.0685
rwrist 11.8458
rhand -15.7511 21.553
rfingers 7.12502
rthumb 10.4403 -8.16781
lclavicle 1.20265e-014 0
lhumerus -22.8926 -5.15947 85.5208
lradius 28.9587
lwrist 9.775
lhand -30.3484 18.5129
lfingers 7.12502
lthumb -3.6539 48.4613
rfemur -25.8487 3.51476 24.376
rtibia 29.0751
rfoot -2.19382 -4.08366
rtoes 9.33832
lfemur 10.015 -3.64499 -22.6538
ltibia 36.2476
lfoot 0.317935 -11.496
ltoes -24.8929
430
root 0.441385 17.8157 44.6041 -1.88544 -0.0404021 -0.754381
lowerback 10.5442 -1.39905 -2.32435
upperback 0.0292704 -2.00543 2.37822
thorax -5.72339 -0.888573 4.11663
lowerneck -15.8929 -2.9339 -3.28564
upperneck 19.1215 -3.86648 2.86938
head 8.71671 -1.75848 1.04418
rclavicle 8.74653e-015 -1.86858e-014
rhumerus -35.5802 -26.2119 -73.2841
rradius 20.7196
rwrist 10.7185
rhand -15.6149 21.329
rfingers 7.12502
rthumb 10.5716 -8.38516
lclavicle 8.74653e-015 -1.86858e-014
lhumerus -23.2951 -4.4592 85.4711
lradius 28.761
lwrist 9.13531
lhand -29.2341 19.229
lfingers 7.12502
lthumb -2.57783 49.1931
rfemur -25.2257 3.53459 24.8401
rtibia 29.7281
rfoot -2.61388 -4.24616
rtoes 9.73807
lfemur 9.05096 -3.2632 -22.0792
ltibia 38.5509
lfoot 3.32281 -13.1093
ltoes -24.3544
431
root 0.409535 17.8441 44.8051 -2.18666 -0.00190875 -1.1315
lowerback 10.7219 -1.43369 -2.07272
upperback 0.155682 -2.01723 2.47884
thorax -5.69377 -0.902337 4.08557
lowerneck -16.3564 -2.99598 -3.05461
upperneck 19.6367 -3.93801 2.53429
head 8.96741 -1.80425 0.876882
rclavicle -3.55328e-015 8.34896e-015
rhumerus -35.5006 -25.6105 -73.7499
rradius 21.2856
rwrist 9.90871
rhand -15.311 20.6326
rfingers 7.12502
rthumb 10.8648 -9.06634
lclavicle -3.55328e-015 8.34896e-015
lhumerus -23.6409 -4.04028 85.4616
lradius 28.4737
lwrist 8.98739
lhand -28.0844 18.9889
lfingers 7.12502
lthumb -1.46742 48.9636
rfemur -24.2572 3.63302 25.4512
rtibia 29.8766
rfoot -2.95243 -4.55869
rtoes 10.462
lfemur 8.00901 -2.89372 -21.2887
ltibia 41.1109
lfoot 6.0259 -14.5251
ltoes -22.6686
432
root 0.380695 17.8737 44.9931 -2.30661 0.142225 -1.31019
lowerback 10.9426 -1.50222 -1.95786
upperback 0.164182 -2.09474 2.49887
thorax -5.80564 -0.94091 4.06239
lowerneck -16.2374 -2.7834 -2.85614
upperneck 19.574 -3.69533 2.52934
head 8.91254 -1.67766 0.874777
rclavicle 1.4387e-014 -1.82882e-014
rhumerus -35.3539 -25.5948 -73.9351
rradius 21.3661
rwrist 10.0011
rhand -15.2943 20.6359
rfingers 7.12502
rthumb 10.8809 -9.06216
lclavicle 1.4387e-014 -1.82882e-014
lhumerus -24.1108 -4.01702 85.5173
lradius 28.073
lwrist 9.70067
lhand -28.1638 15.9616
lfingers 7.12502
lthumb -1.54414 45.9358
rfemur -23.4874 3.73666 25.794
rtibia 29.8332
rfoot -3.2369 -4.63366
rtoes 11.2311
lfemur 6.63574 -2.63956 -20.7367
ltibia 43.6608
lfoot 8.4956 -15.8732
ltoes -20.4425
433
root 0.343266 17.9009 45.1628 -2.26538 0.0443965 -1.88734
lowerback 11.1971 -1.45998 -1.52825
upperback 0.0599393 -1.97599 2.62225
thorax -6.0789 -0.885877 3.94515
lowerneck -17.3058 -3.15986 -2.66145
upperneck 21.0573 -4.1772 2.06757
head 9.6233 -1.92211 0.603105
rclavicle 1.51573e-015 1.82882e-014
rhumerus -35.2565 -25.6151 -74.0959
rradius 21.285
rwrist 9.8861
rhand -15.3117 21.4644
rfingers 7.12502
rthumb 10.8641 -8.23463
lclavicle 1.51573e-015 1.82882e-014
lhumerus -24.6513 -4.28834 85.6075
lradius 28.0901
lwrist 9.88754
lhand -27.5022 16.6116
lfingers 7.12502
lthumb -0.905103 46.5894
rfemur -22.8721 4.28656 26.604
rtibia 29.6301
rfoot -3.36076 -5.08286
rtoes 12.3009
lfemur 4.86958 -2.28696 -19.684
ltibia 46.2656
lfoot 11.4201 -17.1091
ltoes -16.5873
434
root 0.314873 17.9214 45.3386 -2.33071 -0.0813487 -2.7385
lowerback 11.2768 -1.42795 -0.702479
upperback 0.0687418 -1.81286 2.81838
thorax -6.14632 -0.826222 3.66173
lowerneck -16.9343 -3.07216 -2.45033
upperneck 20.8199 -4.08266 1.93022
head 9.46069 -1.88162 0.539766
rclavicle -1.83876e-014 9.93923e-015
rhumerus -35.1383 -24.8913 -74.562
rradius 21.5246
rwrist 9.07356
rhand -15.5327 22.4334
rfingers 7.12502
rthumb 10.6509 -7.27669
lclavicle -1.83876e-014 9.93923e-015
lhumerus -24.9867 -4.46967 85.7502
lradius 27.8817
lwrist 9.87769
lhand -26.7497 17.3776
lfingers 7.12502
lthumb -0.17835 47.3572
rfemur -22.0345 4.71087 27.7117
rtibia 29.3586
rfoot -3.56039 -5.58119
rtoes 12.9229
lfemur 3.25303 -1.94786 -18.4062
ltibia 48.9004
lfoot 14.3688 -18.061
ltoes -12.0355
435
root 0.304889 17.9439 45.5322 -2.45116 0.0821216 -2.93019
lowerback 11.0511 -1.48082 -0.360442
upperback 0.206463 -1.84264 2.83825
thorax -5.88181 -0.855883 3.48026
lowerneck -16.1719 -3.02956 -2.73363
upperneck 19.9949 -4.02791 2.2892
head 9.04718 -1.84914 0.730459
rclavicle -1.21259e-014 -3.57812e-015
rhumerus -34.8706 -24.1969 -75.0094
rradius 21.9073
rwrist 8.46531
rhand -15.5848 22.8141
rfingers 7.12502
rthumb 10.6007 -6.89858
lclavicle -1.21259e-014 -3.57812e-015
lhumerus -25.2212 -4.68842 85.9856
lradius 27.5672
lwrist 9.94529
lhand -26.4906 17.3496
lfingers 7.12502
lthumb 0.0719411 47.3293
rfemur -20.9841 4.36953 28.0616
rtibia 29.0137
rfoot -3.95926 -5.47339
rtoes 12.3562
lfemur 1.83554 -1.93606 -18.0661
ltibia 51.508
lfoot 17.1579 -18.4621
ltoes -4.94913
436
root 0.292461 17.9591 45.7085 -2.44704 0.135545 -3.2821
lowerback 10.9244 -1.48511 0.0900617
upperback 0.285107 -1.78982 2.9217
thorax -5.74216 -0.843655 3.2978
lowerneck -16.0152 -3.17932 -3.10596
upperneck 19.7667 -4.21349 2.62434
head 8.96171 -1.93024 0.885247
rclavicle -7.7526e-015 6.75868e-015
rhumerus -34.5005 -24.1395 -75.1984
rradius 22.1253
rwrist 8.79706
rhand -15.4894 22.4552
rfingers 7.12502
rthumb 10.6927 -7.2527
lclavicle -7.7526e-015 6.75868e-015
lhumerus -25.365 -4.80332 86.1994
lradius 27.2506
lwrist 9.82247
lhand -26.2958 17.1115
lfingers 7.12502
lthumb 0.260028 47.0911
rfemur -20.1825 4.18441 28.5763
rtibia 28.7853
rfoot -4.46416 -5.30324
rtoes 12.1925
lfemur 0.262457 -1.77366 -17.5075
ltibia 53.9051
lfoot 19.9303 -18.8002
ltoes 1.72354
437
root 0.264007 17.9685 45.8513 -2.30633 -0.184369 -4.02534
lowerback 11.1783 -1.26811 0.852507
upperback 0.0660725 -1.38286 3.06308
thorax -6.15372 -0.657694 2.96745
lowerneck -15.4877 -3.28696 -3.24987
upperneck 19.6071 -4.39034 2.85912
head 8.82561 -2.00513 0.974278
rclavicle -6.11263e-015 3.97569e-016
rhumerus -34.5752 -24.1088 -75.1917
rradius 22.221
rwrist 8.9941
rhand -15.4392 23.3671
rfingers 7.12502
rthumb 10.7412 -6.3383
lclavicle -6.11263e-015 3.97569e-016
lhumerus -25.7446 -5.33754 86.5116
lradius 26.854
lwrist 9.7147
lhand -26.1169 17.3629
lfingers 7.12502
lthumb 0.432821 47.3422
rfemur -19.6904 4.80542 29.5574
rtibia 28.565
rfoot -4.69405 -5.659
rtoes 13.262
lfemur -1.73391 -1.06191 -16.2974
ltibia 56.3315
lfoot 22.4789 -19.295
ltoes 4.46145
